<?xml version="1.0" encoding="utf-8"?>
<svg xmlns="http://www.w3.org/2000/svg"  width="234.49px" height="43px" viewBox="0 0 1030.63 192.18"><defs><style>.cls-1{fill:#1d1d1b;}.cls-2{fill:#0065a8;}.cls-3{fill:#fff;}.cls-4{fill:#006dae;}.cls-5{stroke:#1d1d1b;stroke-miterlimit:10;stroke-width:0.3px;}</style></defs><g id="Layer_1" data-name="Layer 1"><path class="cls-1" d="M331.42,170.11v46.16c0,19-7.79,27.8-24.51,27.8-19.37,0-23.44-15.12-23.44-27.8V170.11h-5.65v46.16c0,21.77,9.79,32.82,29.09,32.82,20,0,30.16-11.05,30.16-32.82V170.11h-5.65Z" transform="translate(-78.09 -75.23)"/><path class="cls-1" d="M373.65,190.16c-8.67,0-16.19,4.66-19.39,11.72V191.44h-5v55.84h5V217.11c0-13.65,7.56-22.47,19.27-22.47,15.11,0,15.11,13.14,15.11,17.46v35.18h5V212.85C393.65,206.64,393.65,190.16,373.65,190.16Z" transform="translate(-78.09 -75.23)"/><polygon class="cls-1" points="327.96 116.21 327.96 172.04 332.97 172.04 332.97 116.21 332.5 116.21 327.96 116.21"/><polygon class="cls-1" points="327.96 99.13 327.96 106.66 332.97 106.66 332.97 99.13 332.5 99.13 327.96 99.13"/><path class="cls-1" d="M460.75,191.44S443,239.33,442.39,241.05l-19.63-49.61H417l22.48,55.84h5.67l21.08-55.84h-5.51Z" transform="translate(-78.09 -75.23)"/><path class="cls-1" d="M493.53,190.16a22.51,22.51,0,0,0-16.42,6.6c-5.4,5.48-8.41,14.06-8.28,23.56-.13,8.76,2.58,16.42,7.62,21.52,4.33,4.39,10.23,6.71,17.08,6.71,13.41,0,22-7.2,24.17-20.25l.1-.56h-5l-.07.39c-1.9,10-9.07,15.94-19.19,15.94a17.72,17.72,0,0,1-13.14-5.27c-4.18-4.25-6.56-10.9-6.56-18.32v-.11h44.29l0-.46c0-.7.05-1.4.05-2.09,0-8.54-2.54-15.89-7.24-20.81C506.61,192.47,500.75,190.16,493.53,190.16Zm0,4.48c12.41,0,19.16,10.61,19.55,21.25H473.91C474.94,205.25,481.91,194.64,493.53,194.64Z" transform="translate(-78.09 -75.23)"/><path class="cls-1" d="M532.12,202.52V191.44h-5v55.84h5V216.79c.44-8.36,2.23-11.52,6.07-15.47a18.23,18.23,0,0,1,14.76-5.2l.53.07v-5l-.45,0C543.87,190.72,535.1,195.66,532.12,202.52Z" transform="translate(-78.09 -75.23)"/><path class="cls-1" d="M579.89,216.33,578.2,216c-8.32-1.77-16.18-3.43-16.18-11.24,0-7.45,7.92-10.09,15.32-10.09,5.84,0,15.63,1.75,15.76,13.51v.47h5v-.47c0-11.6-7.37-18-20.76-18-4.76,0-20.33,1.06-20.33,14.57,0,12.15,11.14,14.41,19.28,16.05l1.44.3c8.73,1.75,17,3.41,17,11.84,0,10.07-11.84,11.15-16.93,11.15-10.14,0-17.08-6.11-17.67-15.56l0-.45h-5v.49c.31,12.34,9,20,22.68,20,5.15,0,21.94-1.13,21.94-15.63C599.71,221,590.73,218.35,579.89,216.33Z" transform="translate(-78.09 -75.23)"/><polygon class="cls-1" points="531.88 116.21 531.88 172.04 536.89 172.04 536.89 116.21 536.41 116.21 531.88 116.21"/><path class="cls-1" d="M636.54,191.44V174.36h-5v17.08H621.39v4.48h10.14v37.85c0,.32,0,.64,0,.95,0,4.3,1,7.42,3.22,9.52,3.33,3.22,8.8,3.31,13.21,3l.45,0v-4.45h-.49c-4.53.12-7.51-.15-9.31-1.89-1.4-1.36-2.05-3.63-2.05-7.14V195.92h13.93c5.49,13,21.16,50.29,21.27,50.57-2.46,7-4,11-5.48,12.56-2.59,2.6-5.18,3.39-11.09,3.39h-.48v4.47h.48c6.11,0,10-.17,13.11-2.54,2.36-1.84,4.13-5.75,6.55-11.52,0,0,23.74-61.41,23.74-61.41H693s-17.67,47.07-18.48,49.24c-.87-2.15-20.06-49.24-20.06-49.24Z" transform="translate(-78.09 -75.23)"/><polygon class="cls-1" points="531.87 99.13 531.87 106.66 536.89 106.66 536.89 99.13 536.41 99.13 531.87 99.13"/><path class="cls-1" d="M404.54,157.55c-22.18-.45-40.83-17.49-40.26-41C364.85,98,379.74,77,406.83,77.76c18.86.35,40,14.52,39.46,40.58S423.63,158.13,404.54,157.55Zm.8-75c-16.92,0-28.72,12.46-28.72,33.38,0,25,14.89,36.35,28.95,36.35,16.92,0,28.15-13,28.15-33.61C433.94,96.62,422.49,82.56,405.34,82.56Z" transform="translate(-78.09 -75.23)"/><path class="cls-1" d="M730.57,79.87v-1.1H708.4v1.1c4.39.29,5.6,1.15,5.6,7.39v27.06H674.21V87.26c0-6.24,1.21-7.1,5.6-7.39v-1.1H657.63v1.1c4.39.29,5.61,1.15,5.61,7.39V148c0,6.24-1.22,7.12-5.61,7.4v1.09h22.18v-1.09c-4.39-.28-5.6-1.16-5.6-7.4V119H714v29c0,6.24-1.21,7.12-5.6,7.4v1.09h22.17v-1.09c-4.39-.28-5.6-1.16-5.6-7.4V87.26C725,81,726.18,80.16,730.57,79.87Z" transform="translate(-78.09 -75.23)"/><path class="cls-1" d="M452.16,78.77v1.1c4.27.23,5.49.7,5.49,5.19v63c0,6.24-1.21,7.12-5.6,7.4v1.09h16.74v-1.09c-4.39-.28-5.61-1.16-5.61-7.4V91.46c0,1,43.29,53.7,52.63,65.05h1.79V85.06c0-4.49,1.21-5,5.48-5.19v-1.1H506.62v1.1c4.28.23,5.5.7,5.5,5.19v49.39L467,78.77Z" transform="translate(-78.09 -75.23)"/><path class="cls-1" d="M561.24,78.77h-1.55c-3.94,9.34-22.12,52.39-28.46,67.27-1.1,2.55-2.86,6.67-4.17,8.11a3.86,3.86,0,0,1-2.95,1.27v1.09h14.78v-1.09c-1.17,0-3.71,0-3.89-2.2a6.86,6.86,0,0,1,.42-2.3c.46-1.38,3.44-8.92,7.21-17.5h29.61c2.91,7.24,5.57,13.42,6.81,16.16h0a13.1,13.1,0,0,1,1.1,3.64c0,2.15-1.9,2.2-4,2.2v1.09h20.66v-1.09c-2.54-.17-3.35-.81-5.2-5ZM544.57,128.5c5-12.35,12.81-32,12.81-32s7,17.6,12.92,32Z" transform="translate(-78.09 -75.23)"/><path class="cls-1" d="M273.81,78.77v1.1c2.39.13,3.8.36,4.6,1.3a6.05,6.05,0,0,1,.61,1.15h0a4.82,4.82,0,0,1,.22,1.25c0,.44.06.93.06,1.48v63c0,6.24-1.22,7.12-5.61,7.4v1.09h16.58v-1.09c-4.39-.28-5.6-1.16-5.6-7.4V94.1c0-1-.23-3-.23-3l1,3,26.85,62.12H314l27.42-64,.8-2.63a15.66,15.66,0,0,0-.23,2.41v56c0,6.24-1.2,7.12-5.59,7.4v1.09h22.18v-1.09c-4.4-.28-5.61-1.16-5.61-7.4v-63c0-4.49,1.21-5,5.49-5.19v-1.1H341.15l-24.81,58.65L291.19,78.77Z" transform="translate(-78.09 -75.23)"/><path class="cls-1" d="M600.66,151.28c5.22,3.14,13,6.43,21.15,6.4h.46c12.14-.18,24.92-9.16,24.92-23.31,0-15.32-10.74-18.86-21.6-24.47-11-5.37-15.55-8.12-15.55-15.32,0-4.91,3-12.11,12.69-12.11a17.4,17.4,0,0,1,8.16,2c7.87,4.37,8.26,10.55,9.27,14.47h1.15l-.67-17.31a49.86,49.86,0,0,0-11.76-3.44,35.57,35.57,0,0,0-4.55-.31c-10.86,0-23.67,6.51-23.67,20.23,0,9.37,5.61,15.21,16.7,20.69s19.31,7.78,19.31,18.75c0,5.61-3.19,15.31-15.54,15.31a18.21,18.21,0,0,1-12-4.29c-7.32-6.92-7.15-12.4-7.71-14.45h-1.14l.34,17.14" transform="translate(-78.09 -75.23)"/><path class="cls-2" d="M99.1,138.28a104.39,104.39,0,0,0,15.07,53.22,87.33,87.33,0,0,0,43.26,36.25,86.93,86.93,0,0,0,43.33-36.25,104.05,104.05,0,0,0,15.07-53.22V78.45H99.1Z" transform="translate(-78.09 -75.23)"/><path class="cls-2" d="M222.81,166.41l-.57,1.93c-.68,2.3-1.44,4.54-2.23,6.68l-5-4.52-.62,1.82A105.72,105.72,0,0,1,204,194.48c-11,17.55-26.45,30.36-44.67,37l-1.87.67c-.52-.21-1.81-.67-1.81-.67-18.21-6.67-33.68-19.46-44.65-37a102.19,102.19,0,0,1-10.39-22.16L100,170.5l-1.46,1.28L95,175c-.78-2.14-1.56-4.35-2.25-6.65l-.56-1.92-1.48,1.34L78.09,179.1l.23.77a146,146,0,0,0,11.54,26l.73,1.37,5.23-4.67c.2.35.36.73.58,1.06,13,20.82,31.46,36,53.32,44l7.71,2.83,7.8-2.83c21.87-8,40.26-23.2,53.29-44,.21-.34.4-.73.61-1.07l5.15,4.66.78-1.37a141.89,141.89,0,0,0,11.54-26l.23-.76Z" transform="translate(-78.09 -75.23)"/><path class="cls-3" d="M206,104.74a5.28,5.28,0,0,1-.55,2.32,3.65,3.65,0,0,1-.85,1.17,5.56,5.56,0,0,0-1.39.86,4.16,4.16,0,0,1-.07-.58,4.79,4.79,0,0,1,.57-2.33,5.3,5.3,0,0,1,2.2-2.15A5.74,5.74,0,0,1,206,104.74Z" transform="translate(-78.09 -75.23)"/><path class="cls-3" d="M196.54,120.56h0a4.9,4.9,0,0,1,3,.53,4.57,4.57,0,0,1-2.66,1.43,5.46,5.46,0,0,1-3.08-.52A5.27,5.27,0,0,1,196.54,120.56Z" transform="translate(-78.09 -75.23)"/><path class="cls-3" d="M191.52,122.13c0-.08,0-.15,0-.23a4.94,4.94,0,0,1,.75-2.67h0a4.9,4.9,0,0,1,2.26-1.86,1.33,1.33,0,0,1,0,.28,4.77,4.77,0,0,1-.74,2.59A4.34,4.34,0,0,1,191.52,122.13Z" transform="translate(-78.09 -75.23)"/><path class="cls-3" d="M195.38,116.71a5.55,5.55,0,0,1,1.47-1.6,6,6,0,0,1,.29,1.38,4.79,4.79,0,0,1-.25,1.55,4.56,4.56,0,0,1-1.24,1.81,5.93,5.93,0,0,0-.63.22.7.7,0,0,1,0-.14A6,6,0,0,0,195.38,116.71Z" transform="translate(-78.09 -75.23)"/><path class="cls-3" d="M197.58,114.23a5.24,5.24,0,0,1,1.07-1.92,5,5,0,0,1,.72,2.46c0,.13,0,.26,0,.4a4.4,4.4,0,0,1-.74,2,4.28,4.28,0,0,0-.62.38,1.34,1.34,0,0,1-.06-.12A5.93,5.93,0,0,0,197.58,114.23Z" transform="translate(-78.09 -75.23)"/><path class="cls-3" d="M199.12,111.26a6.81,6.81,0,0,1,.5-2.07,4.87,4.87,0,0,1,1.4,2.61c0,.23,0,.45,0,.66a4.29,4.29,0,0,1-.29,1.49,4.88,4.88,0,0,0-.49.53.51.51,0,0,1-.09-.13A7.06,7.06,0,0,0,199.12,111.26Z" transform="translate(-78.09 -75.23)"/><path class="cls-3" d="M199.85,108.05a4.86,4.86,0,0,1-.11-1,5.3,5.3,0,0,1,.2-1.12,4.46,4.46,0,0,1,2.3,4,2.66,2.66,0,0,1,0,.28,4.46,4.46,0,0,0-.4.66.94.94,0,0,1-.12-.09A6.37,6.37,0,0,0,199.85,108.05Z" transform="translate(-78.09 -75.23)"/><path class="cls-3" d="M199.91,104.81a4.92,4.92,0,0,1-.46-2.17,5.42,5.42,0,0,1,2.43,1.72,4.6,4.6,0,0,1,.81,2,6.59,6.59,0,0,0-.22.72l-.15,0A6.17,6.17,0,0,0,199.91,104.81Z" transform="translate(-78.09 -75.23)"/><path class="cls-3" d="M202.2,103.21l-.19,0a6.41,6.41,0,0,0-2.75-1.62,5.22,5.22,0,0,1-.93-1.94,4.71,4.71,0,0,1,2.67,1.1,4.47,4.47,0,0,1,1.24,1.81A5.07,5.07,0,0,0,202.2,103.21Z" transform="translate(-78.09 -75.23)"/><path class="cls-3" d="M200.93,99.56a5.94,5.94,0,0,0-3.12-1,5.78,5.78,0,0,1-1.43-1.73,5.23,5.23,0,0,1,3,.5,4.91,4.91,0,0,1,1.55,1.44,6.6,6.6,0,0,0,.13.73Z" transform="translate(-78.09 -75.23)"/><path class="cls-3" d="M198.92,119.85a6.1,6.1,0,0,0-1.57-.24,5.73,5.73,0,0,1,2.16-1.9h0a5.26,5.26,0,0,1,3.1-.18,4.93,4.93,0,0,1-2.33,2A4,4,0,0,1,198.92,119.85Z" transform="translate(-78.09 -75.23)"/><path class="cls-3" d="M201.72,116.46a5.85,5.85,0,0,0-1.62.13,5.22,5.22,0,0,1,1.75-2.37h0a5.25,5.25,0,0,1,3-.94,5.18,5.18,0,0,1-1.8,2.58A5.41,5.41,0,0,1,201.72,116.46Z" transform="translate(-78.09 -75.23)"/><path class="cls-3" d="M204.79,111.61a4.35,4.35,0,0,1-1.15.94,6.48,6.48,0,0,0-1.49.47,5.3,5.3,0,0,1,1.11-2.75,5.68,5.68,0,0,1,2.6-1.51A5.07,5.07,0,0,1,204.79,111.61Z" transform="translate(-78.09 -75.23)"/><path class="cls-3" d="M205.32,101.35a5,5,0,0,1-.14,1.16,3.76,3.76,0,0,1-.6,1.34,5.55,5.55,0,0,0-1.14,1.13,5.11,5.11,0,0,1-.37-1.78,4.77,4.77,0,0,1,.15-1.18,5.28,5.28,0,0,1,1.7-2.6A5.84,5.84,0,0,1,205.32,101.35Z" transform="translate(-78.09 -75.23)"/><path class="cls-3" d="M201.74,98.1a5.37,5.37,0,0,1,1-2.89,5.26,5.26,0,0,1,1,2.91v0a4.37,4.37,0,0,1-.27,1.43,6.75,6.75,0,0,0-.83,1.34,5,5,0,0,1-.92-2.77Z" transform="translate(-78.09 -75.23)"/><path class="cls-3" d="M199.67,91.6a5.18,5.18,0,0,1,1.68,2.61,5.59,5.59,0,0,1,.13,1.07,3,3,0,0,1,0,.31,6.3,6.3,0,0,0-.52,1.59,4.83,4.83,0,0,1-1.5-2.49,6.94,6.94,0,0,1-.1-1.11A6.1,6.1,0,0,1,199.67,91.6Z" transform="translate(-78.09 -75.23)"/><path class="cls-3" d="M199.09,96.21l-.14,0a6.26,6.26,0,0,0-3.31-.2,6.1,6.1,0,0,1-1.77-1.33,5.25,5.25,0,0,1,3-.22,4.57,4.57,0,0,1,1.91,1C198.89,95.76,199,96,199.09,96.21Z" transform="translate(-78.09 -75.23)"/><path class="cls-3" d="M195.92,88.81A5,5,0,0,1,198.15,91a5.12,5.12,0,0,1,.44,1.3,7.12,7.12,0,0,0-.14,1.66,5.53,5.53,0,0,1-2.13-2.08,5.16,5.16,0,0,1-.5-2.26A6.55,6.55,0,0,1,195.92,88.81Z" transform="translate(-78.09 -75.23)"/><path class="cls-3" d="M194.79,90.81l.31.28a5.64,5.64,0,0,0,.42,1.15h0a6,6,0,0,0,.73,1.07,5.18,5.18,0,0,1-2.64-.89,5.44,5.44,0,0,1-1.74-2.54A5,5,0,0,1,194.79,90.81Z" transform="translate(-78.09 -75.23)"/><path class="cls-3" d="M180.93,113.12a1.14,1.14,0,0,1,1.1,1.16,1,1,0,0,1-.13.47c-.1.21-.17.45.27.45h1.57V95.37a19.92,19.92,0,0,1,1.77-9.08l.45-.88.45.88a20.9,20.9,0,0,1,1.71,9.08V115.2h1.56c.44,0,.36-.24.26-.45a1,1,0,0,1-.12-.47,1.16,1.16,0,0,1,1.17-1.16,1.2,1.2,0,0,1,1.19,1.2c0,.82-.63,1.66-2.1,1.66H187.5a11,11,0,0,1,.59,3.77,10.86,10.86,0,0,1-.85,4.48A14.12,14.12,0,0,0,192,122.7l.13-.08.36.85-.1.06a14.68,14.68,0,0,1-3.93,1.33l-1.78.33a1,1,0,0,1,.3.76,1,1,0,0,1-1.07,1,1,1,0,0,1-.76-1.81l-1.91-.33a14.56,14.56,0,0,1-3.79-1.33l-.1-.06.37-.85.12.08a14.41,14.41,0,0,0,4.85,1.55,9.68,9.68,0,0,1-.93-4.5,11,11,0,0,1,.59-3.77h-2.58c-1.38,0-2-.86-2-1.66A1.21,1.21,0,0,1,180.93,113.12Z" transform="translate(-78.09 -75.23)"/><path class="cls-3" d="M176.86,119.92a.66.66,0,0,1,0,.15,4,4,0,0,0-.64-.22A4.12,4.12,0,0,1,175,118a5,5,0,0,1-.25-1.54,6.5,6.5,0,0,1,.28-1.38,6.45,6.45,0,0,1,1.4,1.6A5.91,5.91,0,0,0,176.86,119.92Z" transform="translate(-78.09 -75.23)"/><path class="cls-3" d="M174.13,98.61a6.07,6.07,0,0,0-3.19,1h-.12a4.93,4.93,0,0,0,.14-.73,4.52,4.52,0,0,1,1.61-1.44,5.13,5.13,0,0,1,2.9-.51A5.07,5.07,0,0,1,174.13,98.61Z" transform="translate(-78.09 -75.23)"/><path class="cls-3" d="M174,117.48a1.34,1.34,0,0,1-.06.12c-.21-.14-.4-.27-.62-.39a4.56,4.56,0,0,1-.75-2c0-.14,0-.26,0-.39a5.15,5.15,0,0,1,.72-2.46,5,5,0,0,1,1.08,1.92A5.83,5.83,0,0,0,174,117.48Z" transform="translate(-78.09 -75.23)"/><path class="cls-3" d="M170.84,111.8a5,5,0,0,1,1.39-2.61,4.89,4.89,0,0,1,.58,2.07,6.29,6.29,0,0,0-1.14,3.09l-.09.13c-.16-.19-.33-.36-.5-.53a4.53,4.53,0,0,1-.29-1.49A5.14,5.14,0,0,1,170.84,111.8Z" transform="translate(-78.09 -75.23)"/><path class="cls-3" d="M170.16,110.8l-.12.09c-.11-.23-.25-.45-.38-.67a1.17,1.17,0,0,1,0-.27,5.08,5.08,0,0,1,.35-1.83,4.9,4.9,0,0,1,2-2.19,6.91,6.91,0,0,1,.19,1.12,4.27,4.27,0,0,1-.12,1A6.56,6.56,0,0,0,170.16,110.8Z" transform="translate(-78.09 -75.23)"/><path class="cls-3" d="M170.87,100.72a4.84,4.84,0,0,1,2.75-1.1,5.45,5.45,0,0,1-1,1.93,6.5,6.5,0,0,0-2.84,1.63.76.76,0,0,0-.16,0c0-.23,0-.46,0-.68A4.05,4.05,0,0,1,170.87,100.72Z" transform="translate(-78.09 -75.23)"/><path class="cls-3" d="M170,104.36a5.27,5.27,0,0,1,2.45-1.72,5,5,0,0,1-.49,2.15,6.42,6.42,0,0,0-2.41,2.23l-.13.06a4.89,4.89,0,0,0-.21-.72A4.35,4.35,0,0,1,170,104.36Z" transform="translate(-78.09 -75.23)"/><path class="cls-3" d="M169.71,113a5.63,5.63,0,0,0-1.4-.47,4.61,4.61,0,0,1-1.17-.94,5.15,5.15,0,0,1-1.16-2.85,5.38,5.38,0,0,1,2.69,1.51A5.87,5.87,0,0,1,169.71,113Z" transform="translate(-78.09 -75.23)"/><path class="cls-3" d="M170,114.21h0a5.24,5.24,0,0,1,1.75,2.37,5.9,5.9,0,0,0-1.63-.13,4.62,4.62,0,0,1-1.24-.61,5.15,5.15,0,0,1-1.78-2.58A5,5,0,0,1,170,114.21Z" transform="translate(-78.09 -75.23)"/><path class="cls-3" d="M172.33,117.71h0a5.39,5.39,0,0,1,2.26,1.9,6,6,0,0,0-1.57.24,4.25,4.25,0,0,1-1.45-.33,4.73,4.73,0,0,1-2.3-2A5.14,5.14,0,0,1,172.33,117.71Z" transform="translate(-78.09 -75.23)"/><path class="cls-3" d="M175.34,120.56h0a5.24,5.24,0,0,1,2.73,1.44,5.35,5.35,0,0,1-3,.52,5.15,5.15,0,0,1-2.73-1.43A5.19,5.19,0,0,1,175.34,120.56Z" transform="translate(-78.09 -75.23)"/><path class="cls-3" d="M178,120.24a4.85,4.85,0,0,1-.73-2.59c0-.1,0-.19,0-.28a5.23,5.23,0,0,1,2.36,1.86h0a5,5,0,0,1,.74,2.67c0,.08,0,.15,0,.23A4.76,4.76,0,0,1,178,120.24Z" transform="translate(-78.09 -75.23)"/><path class="cls-3" d="M176.34,92.24a5.61,5.61,0,0,0,.41-1.15c.1-.09.21-.19.33-.28a5.18,5.18,0,0,1,3-.92,5.11,5.11,0,0,1-1.82,2.54,5.24,5.24,0,0,1-2.64.89,6.52,6.52,0,0,0,.73-1.07Z" transform="translate(-78.09 -75.23)"/><path class="cls-3" d="M173.78,91a5.19,5.19,0,0,1,2.16-2.17,4.46,4.46,0,0,1-.42,3,4.78,4.78,0,0,1-2,2.08,6.18,6.18,0,0,0-.14-1.66A4.73,4.73,0,0,1,173.78,91Z" transform="translate(-78.09 -75.23)"/><path class="cls-3" d="M173.13,95.53a4.46,4.46,0,0,1,1.91-1,5,5,0,0,1,2.93.22,5.93,5.93,0,0,1-1.76,1.33,6,6,0,0,0-3.23.2l-.14,0A5.79,5.79,0,0,0,173.13,95.53Z" transform="translate(-78.09 -75.23)"/><path class="cls-3" d="M170.51,94.21a5,5,0,0,1,1.67-2.61,5.71,5.71,0,0,1,.42,2,4.21,4.21,0,0,1-.13,1.11,5.24,5.24,0,0,1-1.54,2.49,6.33,6.33,0,0,0-.53-1.59c0-.09,0-.22,0-.31A4.34,4.34,0,0,1,170.51,94.21Z" transform="translate(-78.09 -75.23)"/><path class="cls-3" d="M168.18,98.12a5.53,5.53,0,0,1,.95-2.91,5.44,5.44,0,0,1,1,2.89v0a5.33,5.33,0,0,1-.88,2.77,5.38,5.38,0,0,0-.78-1.34,4.12,4.12,0,0,1-.27-1.43Z" transform="translate(-78.09 -75.23)"/><path class="cls-3" d="M167,99.42a5.37,5.37,0,0,1,1.71,2.6,4.75,4.75,0,0,1-.22,3,5.13,5.13,0,0,0-1.15-1.13,4.65,4.65,0,0,1-.61-1.34,5,5,0,0,1-.14-1.16A5.82,5.82,0,0,1,167,99.42Z" transform="translate(-78.09 -75.23)"/><path class="cls-3" d="M165.93,104a5.09,5.09,0,0,1,2.27,2.15,4.89,4.89,0,0,1,.56,2.33c0,.18,0,.38-.06.57a5.76,5.76,0,0,0-1.4-.85,4.77,4.77,0,0,1-.89-1.17,4.69,4.69,0,0,1-.57-2.32A4.31,4.31,0,0,1,165.93,104Z" transform="translate(-78.09 -75.23)"/><path class="cls-2" d="M187.19,95.37A20.57,20.57,0,0,0,186,87.89V114h1.23Z" transform="translate(-78.09 -75.23)"/><path class="cls-3" d="M138.06,116.72a20.25,20.25,0,0,0,6.48.93V90.25a21.65,21.65,0,0,1-6.8-1,19.94,19.94,0,0,0-5.36-.85h0a6.33,6.33,0,0,0-4.29,1.41V117a8,8,0,0,1,4.24-1.15A20.91,20.91,0,0,1,138.06,116.72Z" transform="translate(-78.09 -75.23)"/><path class="cls-3" d="M122.58,115.83a7.89,7.89,0,0,1,4.23,1.16V89.83a6.19,6.19,0,0,0-4.28-1.41,19.65,19.65,0,0,0-5.36.85,21.65,21.65,0,0,1-6.78,1v27.4a20.33,20.33,0,0,0,6.46-.93A20.74,20.74,0,0,1,122.58,115.83Z" transform="translate(-78.09 -75.23)"/><path class="cls-3" d="M148,90.82h-1.76l.15.61a.54.54,0,0,1,0,.19v28.2l-17.48,0c-.32.54-.7.63-1.51.63s-1.06-.09-1.37-.63l-17.57,0V91.62a.65.65,0,0,1,0-.2l.15-.6h-2.37V122h18.84a2.58,2.58,0,0,0,2.3,1.36A2.62,2.62,0,0,0,129.8,122h18.85V90.82Z" transform="translate(-78.09 -75.23)"/><path class="cls-2" d="M132.33,95a9.85,9.85,0,0,0-2.64.43v1.4a8.26,8.26,0,0,1,2.69-.5,20.66,20.66,0,0,1,5.33.89,28.21,28.21,0,0,0,5.1,1V96.89a26.58,26.58,0,0,1-4.76-1A21.86,21.86,0,0,0,132.33,95Z" transform="translate(-78.09 -75.23)"/><path class="cls-2" d="M132.33,110.9a9.86,9.86,0,0,0-2.64.42v1.41a7.56,7.56,0,0,1,2.69-.49,19.78,19.78,0,0,1,5.33.86,27.89,27.89,0,0,0,5.1,1v-1.28a25.18,25.18,0,0,1-4.77-.94A21.73,21.73,0,0,0,132.33,110.9Z" transform="translate(-78.09 -75.23)"/><path class="cls-2" d="M132.33,107.71a10.28,10.28,0,0,0-2.64.42v1.41a7.76,7.76,0,0,1,2.69-.5,20.83,20.83,0,0,1,5.35.88,27.67,27.67,0,0,0,5.08,1V109.6a27.18,27.18,0,0,1-4.75-.95A20.69,20.69,0,0,0,132.33,107.71Z" transform="translate(-78.09 -75.23)"/><path class="cls-2" d="M132.33,98.18a9.86,9.86,0,0,0-2.64.42V100a8.53,8.53,0,0,1,2.69-.5,20.31,20.31,0,0,1,5.32.89,28,28,0,0,0,5.11,1v-1.29a26.78,26.78,0,0,1-4.78-.94A20.49,20.49,0,0,0,132.33,98.18Z" transform="translate(-78.09 -75.23)"/><path class="cls-2" d="M132.33,104.56a9.18,9.18,0,0,0-2.64.38v1.4a7.51,7.51,0,0,1,2.67-.46,20.14,20.14,0,0,1,5.33.88,29.92,29.92,0,0,0,5.12.95v-1.28a28.11,28.11,0,0,1-4.8-.94A21,21,0,0,0,132.33,104.56Z" transform="translate(-78.09 -75.23)"/><path class="cls-2" d="M138.05,92.75a21.32,21.32,0,0,0-5.72-.9,9.91,9.91,0,0,0-2.64.39v1.41a8,8,0,0,1,2.69-.5,19.8,19.8,0,0,1,5.33.88,25.83,25.83,0,0,0,5.1,1V93.7A25.73,25.73,0,0,1,138.05,92.75Z" transform="translate(-78.09 -75.23)"/><path class="cls-2" d="M116.87,108.66a29.83,29.83,0,0,1-4.79.94v1.29a28.94,28.94,0,0,0,5.12-1,20.29,20.29,0,0,1,5.33-.88,7.55,7.55,0,0,1,2.7.5v-1.41a10.43,10.43,0,0,0-2.65-.42A20.47,20.47,0,0,0,116.87,108.66Z" transform="translate(-78.09 -75.23)"/><path class="cls-2" d="M116.91,105.49a30.78,30.78,0,0,1-4.83,1v1.27a31.4,31.4,0,0,0,5.15-.95,19.68,19.68,0,0,1,5.3-.88,7.4,7.4,0,0,1,2.7.47V105a9.29,9.29,0,0,0-2.65-.39A20.77,20.77,0,0,0,116.91,105.49Z" transform="translate(-78.09 -75.23)"/><path class="cls-2" d="M132.33,101.36a10.28,10.28,0,0,0-2.64.42v1.4a8.57,8.57,0,0,1,2.69-.49,19.69,19.69,0,0,1,5.35.9,30.44,30.44,0,0,0,5.08.94v-1.28a26.58,26.58,0,0,1-4.76-1A20.94,20.94,0,0,0,132.33,101.36Z" transform="translate(-78.09 -75.23)"/><path class="cls-2" d="M116.88,111.84a26.29,26.29,0,0,1-4.8.94v1.29a28.94,28.94,0,0,0,5.12-1,19.42,19.42,0,0,1,5.33-.86,7.64,7.64,0,0,1,2.7.48v-1.4a10,10,0,0,0-2.65-.42A21.46,21.46,0,0,0,116.88,111.84Z" transform="translate(-78.09 -75.23)"/><path class="cls-2" d="M116.87,92.75a26,26,0,0,1-4.79,1V95a26.59,26.59,0,0,0,5.12-1,19.49,19.49,0,0,1,5.33-.88,8,8,0,0,1,2.7.5v-1.4a9.61,9.61,0,0,0-2.63-.4A21,21,0,0,0,116.87,92.75Z" transform="translate(-78.09 -75.23)"/><path class="cls-2" d="M116.87,95.94a27.82,27.82,0,0,1-4.79,1v1.29a28.21,28.21,0,0,0,5.12-1,20.33,20.33,0,0,1,5.33-.89,8.07,8.07,0,0,1,2.7.5v-1.4a10,10,0,0,0-2.65-.43A21.53,21.53,0,0,0,116.87,95.94Z" transform="translate(-78.09 -75.23)"/><path class="cls-2" d="M116.87,102.3a27.82,27.82,0,0,1-4.79,1v1.27a29.84,29.84,0,0,0,5.12-.94,19.53,19.53,0,0,1,5.33-.89,8.3,8.3,0,0,1,2.7.49v-1.39a10,10,0,0,0-2.63-.43A20.83,20.83,0,0,0,116.87,102.3Z" transform="translate(-78.09 -75.23)"/><path class="cls-2" d="M116.91,99.12a27.85,27.85,0,0,1-4.83.94v1.29a28.54,28.54,0,0,0,5.15-1,19.71,19.71,0,0,1,5.3-.89,8.87,8.87,0,0,1,2.7.49V98.6a10,10,0,0,0-2.63-.42A20.08,20.08,0,0,0,116.91,99.12Z" transform="translate(-78.09 -75.23)"/><polygon class="cls-3" points="63.22 112.52 63.16 116.54 59.99 114.05 56.73 116.54 56.65 112.52 52.76 111.51 55.85 108.96 54.2 105.27 58.14 106.08 59.99 102.48 61.75 106.08 65.77 105.27 64.05 108.96 67.14 111.51 63.22 112.52"/><polygon class="cls-3" points="85.25 140.9 81.25 139.39 79.47 143.32 77.73 139.39 73.68 140.9 75.19 136.87 71.31 135.04 75.19 133.28 73.68 129.21 77.73 130.72 79.47 126.78 81.25 130.72 85.25 129.21 83.8 133.28 87.65 135.05 83.8 136.87 85.25 140.9"/><polygon class="cls-3" points="73.57 86.83 77.57 87.67 79.34 84.06 81.19 87.67 85.16 86.83 83.49 90.51 86.58 93.11 82.67 94.07 82.59 98.13 79.34 95.66 76.18 98.13 76.11 94.07 72.2 93.11 75.3 90.51 73.57 86.83"/><polygon class="cls-3" points="89.57 119.51 86.42 117.94 83.36 119.51 83.93 116.06 81.44 113.6 84.88 113.06 86.42 109.98 88.04 113.06 91.43 113.6 89.03 116.06 89.57 119.51"/><polygon class="cls-3" points="102.3 106.83 98.71 106.78 97.01 109.86 95.27 106.78 91.68 106.83 93.53 103.79 91.68 100.72 95.27 100.79 97.01 97.68 98.71 100.79 102.3 100.72 100.46 103.79 102.3 106.83"/><path class="cls-3" d="M157.43,144.42l44.5,39.92a100.7,100.7,0,0,0,6.68-16.19l-51.18-46-51.08,46A97.94,97.94,0,0,0,113,184.34Z" transform="translate(-78.09 -75.23)"/><path class="cls-3" d="M226.46,197.81l2.4-14.86L222,176.77a61.62,61.62,0,0,0,2-5.89c2.06,1.86,9,8.1,10,9A131.62,131.62,0,0,1,226.46,197.81Z" transform="translate(-78.09 -75.23)"/><path class="cls-3" d="M223.13,202.77c-.67-.61-1.63-1.47-2.72-2.43a.17.17,0,0,0,0-.05,91.94,91.94,0,0,0,4.36-8.21Z" transform="translate(-78.09 -75.23)"/><path class="cls-3" d="M81,179.86c1-.88,8-7.13,10-9,.63,2.05,1.32,4,2,5.87l-6.9,6.2,2.39,14.82A129,129,0,0,1,81,179.86Z" transform="translate(-78.09 -75.23)"/><path class="cls-3" d="M91.78,202.77l-1.64-10.72c1.31,2.83,2.81,5.57,4.4,8.27Z" transform="translate(-78.09 -75.23)"/><path class="cls-3" d="M216.42,202.31c-12.75,20.32-30.74,35.18-52.06,43l-6.93,2.52c-.69-.29-6.84-2.53-6.84-2.53-21.32-7.8-39.31-22.66-52.08-43a114.11,114.11,0,0,1-9.34-18.7c1.1-1,7.73-7,9.7-8.74a106,106,0,0,0,10,21c11.32,18,27.15,31.19,45.91,38.05l2.68,1,2.76-1c18.76-6.86,34.61-20,45.87-38.05a103.91,103.91,0,0,0,10-21c1.9,1.76,8.58,7.76,9.7,8.74A116,116,0,0,1,216.42,202.31Z" transform="translate(-78.09 -75.23)"/><path class="cls-2" d="M102.6,195.62l2-2.24-.17-.68a15.4,15.4,0,0,1-1.12-1.16c-2.09.38-5.4.9-6.88,1l-.39-.44-.39.22c.2.34.39.69.57,1s.43.83.65,1.24l.38-.23-.17-.6,2.18-.5,1.16,2a18.78,18.78,0,0,1-1.56,1.64l-.43-.5-.41.24c.28.5.59,1,.88,1.51s.53,1,.79,1.48l.43-.24-.2-.6C100.33,198.25,101.64,196.72,102.6,195.62Zm-2.42-2.55,2.79-.58,0,0-1.93,2.13Z" transform="translate(-78.09 -75.23)"/><path class="cls-2" d="M112.53,206.09l.39-.29c-.26-.35-.54-.69-.79-1s-.5-.71-.74-1.07L111,204l.3.62c-1,.83-3.64,2.8-3.64,2.8l0,0c.66-1.84,1.44-4,2.13-5.9-.24-.33-.48-.63-.72-1s-.42-.65-.63-1l-.37.28.27.62a15.24,15.24,0,0,1-1.59,1.24L105,202.92a16.81,16.81,0,0,1-1.71,1.11l-.48-.48-.37.27c.26.35.51.69.77,1.06s.47.71.73,1.07l.38-.28L104,205c1-.83,2.53-1.91,3.72-2.79h0c-.76,2-1.46,4-2.24,6,.18.21.37.45.53.68a5,5,0,0,1,.44.65c.57-.46,1.32-1,2.17-1.66l1.69-1.23c.64-.45,1.18-.79,1.73-1.11Z" transform="translate(-78.09 -75.23)"/><path class="cls-2" d="M113,211.9a3.66,3.66,0,0,0-.18,5.31,5,5,0,0,0,3.63,1.74l.13-.87a3.22,3.22,0,0,1-2.12-1,2.64,2.64,0,0,1,.16-3.9,2.31,2.31,0,0,1,3.46.09,3.83,3.83,0,0,1,.84,1.67l-.39.46.35.4a5.27,5.27,0,0,1,1.57-.92,7.06,7.06,0,0,0-1.45-2.26C117.22,210.67,114.73,210.29,113,211.9Z" transform="translate(-78.09 -75.23)"/><path class="cls-2" d="M127.31,220.47c-2-1.72-4.37-1.44-5.74.2-1.52,1.88-1.16,4,.84,5.68s4.4,1.44,5.73-.21C129.75,224.28,129.37,222.16,127.31,220.47Zm-.68,4.39c-1,1.22-2.46,1.59-3.55.7s-1-2.37.06-3.59,2.48-1.61,3.55-.7S127.61,223.63,126.63,224.86Z" transform="translate(-78.09 -75.23)"/><path class="cls-2" d="M137.9,228.21c-.43-.27-.89-.54-1.34-.8s-.9-.52-1.33-.79-.74-.49-1.11-.73l-.26.41.51.47a16.33,16.33,0,0,1-1,1.77l-1,1.81c-.42.63-.78,1.14-1.18,1.65l-.64-.25-.25.41,1.48.89c.48.29.95.62,1.39.93l.24-.4-.46-.46a11.48,11.48,0,0,1,1-1.79l.36-.57.48.3c.11,1.1.23,2.95.31,4.27a17.93,17.93,0,0,1,2,1.08l.26-.4-.21-.29c-.12-.51-.47-3.15-.58-3.88a2,2,0,0,0,2.6-.62C139.62,230.37,139.63,229.31,137.9,228.21Zm-.52,2c-.47.73-1.2.7-2.1.14a3.15,3.15,0,0,1-.54-.4l.32-.52c.34-.53.64-1,.85-1.24a5.48,5.48,0,0,1,.9.48C137.57,229.14,137.73,229.65,137.38,230.21Z" transform="translate(-78.09 -75.23)"/><path class="cls-2" d="M148.78,234l-.55-.45a13.92,13.92,0,0,1-1.59-.27,66,66,0,0,1-5,4.9l-.6-.13-.19.44c.37.16.74.3,1.11.47l1.28.6.21-.43-.52-.37,1.46-1.7,2.11,1a20.46,20.46,0,0,1-.29,2.24l-.64-.15-.19.42,1.63.7,1.51.72.19-.43-.5-.38c0-.67.1-2.68.24-4.14Zm-2.15,3.14L145,236.4l1.91-2.13h0Z" transform="translate(-78.09 -75.23)"/><path class="cls-2" d="M169.89,239.71a13.62,13.62,0,0,1-.86-1.83l-.84-1.93a20.14,20.14,0,0,1-.74-1.89l.58-.39-.21-.44c-.53.25-1,.5-1.57.71s-1.06.44-1.6.68l.2.42.67-.15c.32.55.59,1.11.92,1.83l.85,1.94c.32.7.53,1.28.75,1.88l-.57.39.19.43c.54-.24,1.05-.49,1.54-.72s1-.43,1.57-.65l-.21-.44Z" transform="translate(-78.09 -75.23)"/><path class="cls-2" d="M183.19,232.48c-.39-.53-.73-1-1.14-1.7L181,229a17.94,17.94,0,0,1-1-1.77l.53-.46-.26-.42c-.43.29-.86.57-1.3.82l-1.35.76c.26,1,1,4.61,1.15,5.38-.83-.57-3.5-2.86-4.18-3.53l-1.29.8-1.34.74.25.4.6-.2.52.86c.51.86,2.11,3.7,2.5,4.5l-.5.46.24.4,1.1-.68c.38-.23.77-.44,1.16-.65l-.25-.41-.65.25c-.38-.51-.73-1-1.14-1.71l-.6-1c-.5-.9-.88-1.54-1.05-1.86v0c2.68,2.26,4.14,3.44,4.87,4.08l1-.59-1.28-6.25h0c.21.3.61.94,1.15,1.84l.63,1a11.78,11.78,0,0,1,.91,1.81l-.45.44.22.42c.43-.3.92-.6,1.42-.91s1-.57,1.51-.87l-.23-.4Z" transform="translate(-78.09 -75.23)"/><path class="cls-2" d="M190.36,227.17c-.44-.47-.86-.93-1.37-1.54l-1-1.19c-.41-.49-.87-1.16-1.24-1.71a4,4,0,0,1,.57-.65,1.26,1.26,0,0,1,1.94.08,1.23,1.23,0,0,1-.11,1.93,2.37,2.37,0,0,1-.47.31l.36.91a5.94,5.94,0,0,0,.94-.63c1.59-1.27,1.63-2.87.76-3.94s-2-1.09-3.3,0a10.84,10.84,0,0,1-1.08.95c-.44.4-.88.75-1.22,1s-.76.58-1.21.95l.31.37.6-.33c.45.45.86.92,1.37,1.51l1.26,1.65c.5.61.87,1.11,1.23,1.63l-.44.52.29.38c.45-.39.88-.76,1.34-1.12s.9-.68,1.59-1.22l-.32-.37Z" transform="translate(-78.09 -75.23)"/><path class="cls-2" d="M202.11,216.2a36.68,36.68,0,0,1-3.8-1.62l-2.77-1.32-.6.37c-.25.44-.5.91-.81,1.4,1,1.92,2.46,4.89,3,6.34l-.34.5.35.33c.26-.28.53-.59.82-.86s.67-.67,1-1l-.34-.34-.53.37L197,218.43l1.67-1.71a21.09,21.09,0,0,1,2,1l-.36.55.35.34,1.2-1.29,1.21-1.17-.35-.33Zm-5.57,1.43-1.36-2.53v0l2.62,1.26Z" transform="translate(-78.09 -75.23)"/><path class="cls-2" d="M210.36,206c-.51.06-3.22.17-4,.2a2,2,0,0,0-.39-2.67c-.73-.6-1.79-.7-3.07.93-.31.42-.63.85-.93,1.27L201.1,207l-.84,1,.39.28.51-.46c.55.35,1.06.69,1.69,1.17l1.7,1.28a16.18,16.18,0,0,1,1.51,1.31l-.33.62.4.28c.33-.46.68-.93,1-1.39s.72-.88,1.08-1.34l-.4-.28-.49.45a19,19,0,0,1-1.7-1.15l-.47-.42.31-.45c1.08,0,3,.05,4.3.1a15.13,15.13,0,0,1,1.27-1.88l-.38-.28Zm-5.5,1.25a5.47,5.47,0,0,1-.46.48l-.49-.36c-.49-.36-.92-.72-1.17-.93a8,8,0,0,1,.56-.84c.54-.7,1.08-.83,1.59-.42S205.47,206.43,204.86,207.25Z" transform="translate(-78.09 -75.23)"/><path class="cls-2" d="M214.83,193c-2.17-1.26-4.12-.56-5.48,1.74s-.7,4.55,1.15,5.63c2.05,1.24,4.11.55,5.48-1.75S216.69,194,214.83,193Zm.22,5.1c-.71,1.21-2.18,1.35-3.52.52s-2-2.15-1.28-3.36,2.14-1.32,3.53-.52S215.78,196.86,215.05,198.05Z" transform="translate(-78.09 -75.23)"/><path class="cls-2" d="M157.43,238.78a1.62,1.62,0,0,0-1.56,1.63,1.66,1.66,0,0,0,1.56,1.69,1.69,1.69,0,0,0,1.68-1.69A1.66,1.66,0,0,0,157.43,238.78Z" transform="translate(-78.09 -75.23)"/><path class="cls-2" d="M96.83,187a1.67,1.67,0,0,0,1.64-1.63,1.63,1.63,0,1,0-3.26,0A1.65,1.65,0,0,0,96.83,187Z" transform="translate(-78.09 -75.23)"/><path class="cls-2" d="M218.38,187a1.67,1.67,0,0,0,1.66-1.63,1.64,1.64,0,1,0-1.66,1.63Z" transform="translate(-78.09 -75.23)"/></g><g id="Bounding_box" data-name="Bounding box"><path class="cls-4" d="M875.45,195.2l58.61-21.58a47.93,47.93,0,0,0,3.21-17.53c0-25.11-18.32-38.69-36.64-38.69-11.71,0-20,3.91-26.64,13.24l-.34-.34c1-19,8-36.14,22.73-36.14,7.64,0,14.09,5.77,16,14.76h22.91C932.52,88.22,917.59,76,896.72,76c-34.61,0-46.65,34.27-46.65,62.09C850.07,165.1,857.67,186.44,875.45,195.2Zm19.41-59.64c12.72,0,18.32,11.37,18.32,22.4,0,11.19-6.95,21.71-18.15,21.71-11.71,0-19.18-10.35-19.18-22C875.85,144.55,883.32,135.56,894.86,135.56Z" transform="translate(-78.09 -75.23)"/><path class="cls-4" d="M933.18,139.36a42.65,42.65,0,0,1,3.32,17,50.85,50.85,0,0,1-.52,7.26,68.69,68.69,0,0,0,2.54,8.34l21.54-7.93c-2.77-9.14-2.82-20.54-2.82-28.25,0-12,0-40.72,19.17-40.72,18.33,0,19.85,24.1,19.85,40.72,0,4.45,0,9.76-.51,15.11l24.5-9c.06-1.77.11-3.56.11-5.41,0-40.21-15.44-61.25-43.78-61.25-28.5,0-43.43,21.21-43.43,61.25C933.15,137.46,933.16,138.41,933.18,139.36Z" transform="translate(-78.09 -75.23)"/><path class="cls-5" d="M966.69,160.68l6.43,15.26,6.44-15.26h2.79L974.44,179v12.26h-2.63V179l-7.91-18.35Z" transform="translate(-78.09 -75.23)"/><path class="cls-5" d="M999.08,160.68V163H987.19v11.15H998.3v2.32H987.19V189h12.26v2.31H984.56V160.68Z" transform="translate(-78.09 -75.23)"/><path class="cls-5" d="M1012.41,160.68l8.65,30.61h-2.79l-2.38-8.92h-10.25l-2.38,8.92h-2.78l8.65-30.61Zm-6.19,19.38h9.1l-4.51-17.24h-.08Z" transform="translate(-78.09 -75.23)"/><path class="cls-5" d="M1032.25,160.68c4.47,0,7.43,2.66,7.43,7.67,0,4.21-1.77,7.08-5.29,7.76v.09h0c5,.47,5,4.59,5,10.5,0,2.36.45,3.69,1.23,4.59h-3.07c-.5-.77-.83-2.61-.83-5.19,0-3.73-.36-6.13-1.18-7.2s-2.1-1.59-4.47-1.59H1026v14h-2.62V160.68ZM1030.49,175c4.18,0,6.56-2,6.56-6.05,0-4.28-2.13-6-6.31-6H1026v12Z" transform="translate(-78.09 -75.23)"/><path class="cls-5" d="M1059.36,168.53h-2.63c0-4-1.8-6.05-5.25-6.05A5.2,5.2,0,0,0,1046,168c0,4.59,3.69,5.7,7.46,6.94a12.91,12.91,0,0,1,4.68,2.53,7.08,7.08,0,0,1,2.05,5.45c0,5.66-3.24,8.91-8.86,8.91s-8.53-3-8.53-9.26v-.72h2.63v1c0,4.33,2,6.69,5.82,6.69,4,0,6.31-2.23,6.31-6.22s-2.58-5.31-6.76-6.64c-3.2-1-4.88-2.06-5.91-3.35a7.79,7.79,0,0,1-1.51-5c0-4.85,3.11-8.1,8.07-8.1C1056.73,160.17,1059.36,162.91,1059.36,168.53Z" transform="translate(-78.09 -75.23)"/><path class="cls-5" d="M1089.66,176c0,10.59-3.16,15.82-9.35,15.82S1071,186.62,1071,176s3.12-15.81,9.35-15.81S1089.66,165.4,1089.66,176Zm-9.35,13.51c4.55,0,6.73-4.29,6.73-13.51s-2.14-13.5-6.77-13.5-6.68,4.46-6.68,13.5C1073.59,185.2,1075.8,189.49,1080.31,189.49Z" transform="translate(-78.09 -75.23)"/><path class="cls-5" d="M1108.56,160.68V163h-11.89v11.15h11.11v2.32h-11.11v14.83h-2.62V160.68Z" transform="translate(-78.09 -75.23)"/><path class="cls-4" d="M975,198.44l4.18,21.61h.08l4.23-21.61h8.73v30.61h-5.41V204.61h-.08l-5.21,24.44H976.9l-5.21-24.44h-.08v24.44h-5.42V198.44Z" transform="translate(-78.09 -75.23)"/><path class="cls-4" d="M1010.23,198.44l7.75,30.61h-6.15l-1.35-6.47h-7.79l-1.35,6.47h-6.15l7.75-30.61Zm-3.69,5.32-2.83,13.76h5.74l-2.82-13.76Z" transform="translate(-78.09 -75.23)"/><path class="cls-4" d="M1026.76,198.44V210.7h.08l7.46-12.26h6.4l-8,13.12,8.85,17.49H1035l-6-12.56-2.17,3.47v9.09h-5.91V198.44Z" transform="translate(-78.09 -75.23)"/><path class="cls-4" d="M1049.89,198.44v30.61H1044V198.44Z" transform="translate(-78.09 -75.23)"/><path class="cls-4" d="M1061.9,198.44l7.14,21h.08v-21h5.41v30.61h-6.72l-7.22-21.43h-.08v21.43h-5.42V198.44Z" transform="translate(-78.09 -75.23)"/><path class="cls-4" d="M1098.11,207.53h-5.66c0-2.32-.9-5.14-3.36-5.14s-4,2.1-4,10.76c0,9.26,1.31,12,4.06,12,1.43,0,3.65-1.55,3.65-4.93v-3.09h-3.9v-4.54h9.56v16.5h-4.35v-2.83H1094a6.48,6.48,0,0,1-6.15,3.43c-6.73,0-8.7-4.58-8.7-16.2,0-9.78,2-15.61,9.85-15.61C1095.16,197.84,1098.11,201,1098.11,207.53Z" transform="translate(-78.09 -75.23)"/><path class="cls-4" d="M984.48,246.23v.31h-5.9c0-3.74-.49-6.39-3.53-6.39-3.2,0-3.69,4-3.69,11.7,0,8.66.94,11,3.77,11,2.63,0,3.69-2.14,3.69-7.76h5.91c0,7-1.77,12.3-9.31,12.3-8.36,0-10-5.61-10-15.9,0-10,1.51-15.91,10-15.91C982.27,235.6,984.48,239.76,984.48,246.23Z" transform="translate(-78.09 -75.23)"/><path class="cls-4" d="M994.82,236.2v11.71h6.88V236.2h5.91v30.61h-5.91V253.22h-6.88v13.59h-5.91V236.2Z" transform="translate(-78.09 -75.23)"/><path class="cls-4" d="M1025.53,236.2l7.75,30.61h-6.15l-1.36-6.47H1018l-1.35,6.47h-6.15l7.75-30.61Zm-3.69,5.32L1019,255.28h5.74l-2.83-13.76Z" transform="translate(-78.09 -75.23)"/><path class="cls-4" d="M1043,236.2l7.13,21h.08v-21h5.42v30.61h-6.73l-7.22-21.43h-.08v21.43h-5.41V236.2Z" transform="translate(-78.09 -75.23)"/><path class="cls-4" d="M1079.16,245.29h-5.65c0-2.31-.91-5.14-3.37-5.14s-4,2.1-4,10.76c0,9.26,1.32,12,4.06,12,1.44,0,3.65-1.54,3.65-4.93v-3.09h-3.89v-4.54h9.55v16.5h-4.34V264h-.09a6.46,6.46,0,0,1-6.15,3.43c-6.72,0-8.69-4.58-8.69-16.2,0-9.78,2-15.61,9.84-15.61C1076.21,235.6,1079.16,238.78,1079.16,245.29Z" transform="translate(-78.09 -75.23)"/><path class="cls-4" d="M1100.49,236.2v5.06H1090v7.2h9.84v5.06H1090v8.23h10.87v5.06h-16.77V236.2Z" transform="translate(-78.09 -75.23)"/></g></svg>